<?xml version="1.0" encoding="UTF-8"?>
<svg version="1.1" xmlns="http://www.w3.org/2000/svg" width="237" height="253">
<path d="M0 0 C3.875 0.875 3.875 0.875 5 2 C7.51135643 2.10165014 9.98876685 2.13989929 12.5 2.125 C13.59985229 2.12536255 13.59985229 2.12536255 14.72192383 2.12573242 C18.45078254 2.10466542 22.00369717 1.94144195 25.6875 1.3125 C31.52866068 0.49587171 37.48076965 2.13561713 43 4 C43.33 4.66 43.66 5.32 44 6 C44.928125 5.835 45.85625 5.67 46.8125 5.5 C52.89053241 5.45038341 57.58539366 10.29524614 62 14 C62.72832031 14.74765625 63.45664063 15.4953125 64.20703125 16.265625 C65.82382573 18.23175497 65.82382573 18.23175497 68 18 C68.33 17.01 68.66 16.02 69 15 C69.99 15.33 70.98 15.66 72 16 C71.83757812 17.35544922 71.83757812 17.35544922 71.671875 18.73828125 C71.66369179 22.14392004 71.66369179 22.14392004 74.265625 24.23046875 C75.25046875 24.87628906 76.2353125 25.52210937 77.25 26.1875 C78.22453125 26.84105469 79.1990625 27.49460937 80.203125 28.16796875 C81.12609375 28.77253906 82.0490625 29.37710938 83 30 C85.359375 31.61328125 85.359375 31.61328125 87 33 C87 33.66 87 34.32 87 35 C87.81210937 35.30357422 87.81210937 35.30357422 88.640625 35.61328125 C102.25935712 43.61766851 109.94507125 62.20222826 114.9921875 76.390625 C115.95790216 79.17266085 115.95790216 79.17266085 118 82 C118.22263605 84.03472439 118.35771829 86.07968706 118.4375 88.125 C118.74423481 93.21452578 119.51204969 97.46117863 121.37890625 102.1953125 C122 104 122 104 122 107 C121.34 107 120.68 107 120 107 C120.14308594 107.97839844 120.14308594 107.97839844 120.2890625 108.9765625 C120.96154489 114.27822603 121.09062488 117.9579047 119 123 C119 123.99 119 124.98 119 126 C118.01 126.495 118.01 126.495 117 127 C116.67 132.61 116.34 138.22 116 144 C112 145 112 145 110 145 C109.48082068 148.30976818 108.9879439 151.45747567 109.0625 154.8125 C109 157 109 157 107 159 C106.94766294 161.50484697 106.94766294 161.50484697 107.1875 164.3125 C107.29842806 169.63704695 107.29842806 169.63704695 104.6875 172.8125 C103.800625 173.534375 102.91375 174.25625 102 175 C101.5875 175.99 101.175 176.98 100.75 178 C98.52447069 181.81519311 96.19662639 182.64698997 92.34375 184.5859375 C88.40008295 186.96528328 85.86062409 190.45484369 83 194 C79.62090768 197.62634298 76.25974589 200.44415246 72 203 C71.34 203 70.68 203 70 203 C69.7525 204.2375 69.505 205.475 69.25 206.75 C68.29088353 210.49987896 67.38670957 212.83626889 64 215 C60.9375 214.625 60.9375 214.625 58 214 C57.01 214.66 56.02 215.32 55 216 C54.01 216 53.02 216 52 216 C52.33 214.68 52.66 213.36 53 212 C52.0925 212.309375 51.185 212.61875 50.25 212.9375 C47.83436662 213.7272263 45.47219715 214.42949297 43 215 C43 214.34 43 213.68 43 213 C40.7522025 215.05233685 39.9977758 216.00667261 39 219 C36 217 36 217 34 214 C33.34 214 32.68 214 32 214 C32 214.66 32 215.32 32 216 C28.04 216.99 28.04 216.99 24 218 C24 218.66 24 219.32 24 220 C19.52010889 220.12521195 15.0411905 220.21508136 10.56005859 220.2746582 C9.04132306 220.29953709 7.52270382 220.33345385 6.00439453 220.37719727 C-4.10759283 220.66086688 -11.88289678 219.93337591 -21 215 C-22.72669922 214.06607422 -22.72669922 214.06607422 -24.48828125 213.11328125 C-30.2319032 209.45102714 -30.2319032 209.45102714 -32.26416016 208.12548828 C-34.06400759 206.95849859 -35.88040974 205.82076415 -37.69921875 204.68359375 C-46.13435732 199.32931293 -53.47604788 193.35366898 -60.60009766 186.35595703 C-61.86395782 185.13177158 -63.17005256 183.95155921 -64.48046875 182.77734375 C-68.81482516 178.80615746 -70.98183453 175.68086273 -72.234375 169.8828125 C-72.82713184 167.81825182 -72.82713184 167.81825182 -74.9140625 167.08984375 C-79.32992201 164.7826812 -80.45355666 158.47539609 -82 154 C-82.81830845 150.99953569 -83.43847197 148.06288019 -84 145 C-84.66 145 -85.32 145 -86 145 C-87.98717914 138.8927361 -89.48787982 132.89243205 -90.47265625 126.54296875 C-91.02892137 123.86053475 -91.97758171 121.53509454 -93 119 C-93.18298785 116.07219444 -93.11990457 113.55455863 -92.5 110.6875 C-90.8679001 101.91496305 -91.82960609 91.08972552 -96.59375 83.44140625 C-98.23273592 80.59594459 -98.31742532 78.93563307 -98.1875 75.6875 C-98.16042969 74.80449219 -98.13335937 73.92148438 -98.10546875 73.01171875 C-98.07066406 72.34785156 -98.03585938 71.68398437 -98 71 C-97.071875 70.690625 -97.071875 70.690625 -96.125 70.375 C-93.16127909 68.45729824 -93.09772974 66.29728521 -92 63 C-89.828125 60.76171875 -89.828125 60.76171875 -87.25 58.6875 C-81.79187942 53.99901369 -78.08542472 49.12153196 -74.84375 42.71484375 C-71.69188768 36.50695276 -67.67275212 32.09017687 -62 28 C-61.34 28 -60.68 28 -60 28 C-60 27.34 -60 26.68 -60 26 C-50.17172176 15.32929792 -37.1844 10.15029468 -23 8 C-21.93523437 8.03867187 -20.87046875 8.07734375 -19.7734375 8.1171875 C-18.85820313 8.07851563 -17.94296875 8.03984375 -17 8 C-14.57577814 5.11490087 -14.57577814 5.11490087 -13 2 C-9.37 2.33 -5.74 2.66 -2 3 C-1.34 2.01 -0.68 1.02 0 0 Z M64 206 C64 206.66 64 207.32 64 208 C64.99 208 65.98 208 67 208 C67 207.34 67 206.68 67 206 C66.01 206 65.02 206 64 206 Z " fill="#0B0B0B" transform="translate(104,14)"/>
<path d="M0 0 C0.8461084 0.00491455 1.6922168 0.0098291 2.56396484 0.01489258 C12.59925408 0.20316287 20.29963778 2.92005095 28.75 8.3125 C29.50023438 8.72113281 30.25046875 9.12976563 31.0234375 9.55078125 C32.75 11.3125 32.75 11.3125 32.921875 14.44921875 C32.78265625 15.62097656 32.6434375 16.79273438 32.5 18 C32.37109375 19.17949219 32.2421875 20.35898438 32.109375 21.57421875 C31.93148437 22.92966797 31.93148437 22.92966797 31.75 24.3125 C28.46614911 22.91329397 26.71560551 21.33738457 24.5 18.5625 C17.54750762 10.37960919 8.43452403 4.07648865 -2.42578125 3.12109375 C-11.56679562 2.68039166 -19.31281853 5.78985489 -26.4296875 11.48046875 C-33.6787886 18.77623789 -36.49104683 27.82578266 -36.57226562 37.90429688 C-36.56904297 38.80212891 -36.56582031 39.69996094 -36.5625 40.625 C-36.57861328 41.51123047 -36.59472656 42.39746094 -36.61132812 43.31054688 C-36.62056855 55.97916427 -31.66014279 68.92935097 -22.9375 78.25 C-12.50560154 87.67387231 -1.64205864 89.9891699 11.98828125 89.69921875 C20.46725289 89.23367363 27.44337789 85.9057501 33.75 80.3125 C35.53963818 78.09986975 35.53963818 78.09986975 37 75.75 C37.50015625 74.98558594 38.0003125 74.22117187 38.515625 73.43359375 C40.75485169 69.58580864 40.87629342 66.51497524 40.87939453 62.14453125 C40.88412277 60.23740356 40.88412277 60.23740356 40.88894653 58.29174805 C40.88715664 56.90283168 40.88510566 55.51391563 40.8828125 54.125 C40.88348613 52.70157861 40.88445665 51.27815733 40.88571167 49.85473633 C40.88718586 46.87222193 40.88504302 43.88973748 40.88037109 40.90722656 C40.87467397 37.08384313 40.87795446 33.2605299 40.88394356 29.43714905 C40.88755668 26.49808218 40.88640712 23.55903197 40.88381577 20.6199646 C40.88314858 19.21015413 40.88396766 17.80034215 40.88629532 16.39053345 C40.88883408 14.42051217 40.88427869 12.4504856 40.87939453 10.48046875 C40.87859894 9.35922607 40.87780334 8.2379834 40.87698364 7.08276367 C40.87202556 4.22448362 40.87202556 4.22448362 39.75 1.3125 C44.7 1.3125 49.65 1.3125 54.75 1.3125 C54.09 2.6325 53.43 3.9525 52.75 5.3125 C52.51503123 7.87952476 52.37812016 10.35202379 52.3359375 12.921875 C52.31829346 13.56656738 52.30064941 14.21125977 52.2824707 14.87548828 C52.21967042 17.27091076 52.17329974 19.66674128 52.125 22.0625 C51.939375 30.10625 51.939375 30.10625 51.75 38.3125 C65.94 38.3125 80.13 38.3125 94.75 38.3125 C94.605625 32.764375 94.46125 27.21625 94.3125 21.5 C94.26939697 19.75227295 94.22629395 18.0045459 94.18188477 16.20385742 C94.14375465 14.81688451 94.10528491 13.42992088 94.06640625 12.04296875 C94.0416925 10.96480896 94.0416925 10.96480896 94.01647949 9.86486816 C93.92594562 6.7699107 93.7358242 4.26997261 92.75 1.3125 C97.7 1.3125 102.65 1.3125 107.75 1.3125 C107.09 2.9625 106.43 4.6125 105.75 6.3125 C105.56320041 9.01477538 105.4764243 11.61181878 105.49121094 14.31225586 C105.4877063 15.10314102 105.48420166 15.89402618 105.48059082 16.70887756 C105.47181101 19.31512308 105.47760994 21.92109561 105.484375 24.52734375 C105.48302714 26.34428459 105.48108559 28.16122507 105.47857666 29.97816467 C105.47563036 33.7835738 105.47990665 37.58888893 105.48925781 41.39428711 C105.50064391 46.26438614 105.49409508 51.13426452 105.48211288 56.00435543 C105.47487401 59.75592195 105.47719167 63.50743647 105.48236847 67.25900459 C105.48369978 69.05429676 105.48207546 70.8495937 105.47740936 72.64488029 C105.4723117 75.15782996 105.48010007 77.67042616 105.49121094 80.18334961 C105.48513824 81.28935013 105.48513824 81.28935013 105.47894287 82.41769409 C105.51662311 87.03436423 106.22553572 89.73910715 107.75 94.3125 C102.8 94.3125 97.85 94.3125 92.75 94.3125 C93.08 93.3225 93.41 92.3325 93.75 91.3125 C93.86513832 89.64099013 93.92636784 87.9655037 93.95532227 86.2902832 C93.97526749 85.26945145 93.99521271 84.24861969 94.01576233 83.19685364 C94.03247482 82.09677475 94.04918732 80.99669586 94.06640625 79.86328125 C94.0975779 78.17165108 94.0975779 78.17165108 94.12937927 76.44584656 C94.19482847 72.8389604 94.25373844 69.23200071 94.3125 65.625 C94.35568961 63.18163298 94.39930404 60.73827344 94.44335938 58.29492188 C94.55130552 52.30085556 94.65041392 46.30673442 94.75 40.3125 C80.56 39.9825 66.37 39.6525 51.75 39.3125 C51.84703161 46.18131653 51.94982559 53.04954348 52.06738281 59.91796875 C52.10561754 62.25352748 52.14047995 64.589144 52.171875 66.92480469 C52.2176447 70.28601705 52.27562036 73.64683355 52.3359375 77.0078125 C52.34748871 78.04865997 52.35903992 79.08950745 52.37094116 80.16189575 C52.39081085 81.14245941 52.41068054 82.12302307 52.43115234 83.13330078 C52.44447601 83.99045685 52.45779968 84.84761292 52.4715271 85.73074341 C52.72618089 88.94993451 52.72618089 88.94993451 54.75 94.3125 C49.8 94.3125 44.85 94.3125 39.75 94.3125 C40.08 92.6625 40.41 91.0125 40.75 89.3125 C40.81652855 87.04254581 40.83543751 84.77081305 40.8125 82.5 C40.80347656 81.33855469 40.79445313 80.17710937 40.78515625 78.98046875 C40.77355469 78.10003906 40.76195313 77.21960938 40.75 76.3125 C40.09 76.3125 39.43 76.3125 38.75 76.3125 C38.37101562 77.18261719 38.37101562 77.18261719 37.984375 78.0703125 C32.99720543 87.12928507 22.96545008 90.99585607 13.75 94.3125 C1.83285826 97.68404129 -11.35656604 95.82198325 -22.25 90.3125 C-25.59500128 88.27311193 -28.42050426 86.01611875 -31.25 83.3125 C-31.94738281 82.65507812 -32.64476562 81.99765625 -33.36328125 81.3203125 C-43.60440837 70.78988801 -46.57573918 58.55217108 -46.63500977 44.35180664 C-46.39639448 31.59685234 -40.87566312 22.11089922 -32.15234375 13.16015625 C-22.99144603 4.48396212 -12.59442909 -0.08575248 0 0 Z " fill="#0349A6" transform="translate(82.25,71.6875)"/>
<path d="M0 0 C0.8461084 0.00491455 1.6922168 0.0098291 2.56396484 0.01489258 C12.59925408 0.20316287 20.29963778 2.92005095 28.75 8.3125 C29.50023438 8.72113281 30.25046875 9.12976563 31.0234375 9.55078125 C32.75 11.3125 32.75 11.3125 32.921875 14.44921875 C32.78265625 15.62097656 32.6434375 16.79273438 32.5 18 C32.37109375 19.17949219 32.2421875 20.35898438 32.109375 21.57421875 C31.93148437 22.92966797 31.93148437 22.92966797 31.75 24.3125 C28.46614911 22.91329397 26.71560551 21.33738457 24.5 18.5625 C17.54750762 10.37960919 8.43452403 4.07648865 -2.42578125 3.12109375 C-11.56679562 2.68039166 -19.31281853 5.78985489 -26.4296875 11.48046875 C-33.6787886 18.77623789 -36.49104683 27.82578266 -36.57226562 37.90429688 C-36.56904297 38.80212891 -36.56582031 39.69996094 -36.5625 40.625 C-36.57861328 41.51123047 -36.59472656 42.39746094 -36.61132812 43.31054688 C-36.62056855 55.97916427 -31.66014279 68.92935097 -22.9375 78.25 C-12.50560154 87.67387231 -1.64205864 89.9891699 11.98828125 89.69921875 C20.45306417 89.23445267 27.46553442 85.91674071 33.75 80.3125 C35.79609457 77.76542947 35.79609457 77.76542947 37.5625 75.0625 C38.16707031 74.17046875 38.77164063 73.2784375 39.39453125 72.359375 C39.84183594 71.68390625 40.28914063 71.0084375 40.75 70.3125 C41.08 70.9725 41.41 71.6325 41.75 72.3125 C37.88874899 81.76590765 29.53378894 87.89870574 20.4375 91.75 C7.48386919 96.97990375 -6.22787088 97.19661199 -19.19921875 91.85546875 C-23.7927883 89.53221654 -27.53349069 86.86367137 -31.25 83.3125 C-31.94738281 82.65507812 -32.64476562 81.99765625 -33.36328125 81.3203125 C-43.60440837 70.78988801 -46.57573918 58.55217108 -46.63500977 44.35180664 C-46.39639448 31.59685234 -40.87566312 22.11089922 -32.15234375 13.16015625 C-22.99144603 4.48396212 -12.59442909 -0.08575248 0 0 Z " fill="#CDCDCD" transform="translate(82.25,71.6875)"/>
<path d="M0 0 C0.99 0.33 1.98 0.66 3 1 C2.74467667 5.2553888 2.5260064 7.42617483 -0.40625 10.625 C-3.83726037 14.54246479 -4.44028178 18.86068921 -5.3125 23.875 C-5.48072266 24.75414063 -5.64894531 25.63328125 -5.82226562 26.5390625 C-6.23144712 28.6901881 -6.6234609 30.84296429 -7 33 C-7.99 32.34 -8.98 31.68 -10 31 C-11.32 32.98 -12.64 34.96 -14 37 C-13.34 37 -12.68 37 -12 37 C-11.875 44.625 -11.875 44.625 -13 48 C-13.03954234 50.33299825 -13.04401732 52.66708189 -13 55 C-12.34 55 -11.68 55 -11 55 C-10.875 58.375 -10.875 58.375 -11 62 C-11.66 62.66 -12.32 63.32 -13 64 C-13 62.68 -13 61.36 -13 60 C-13.99 60 -14.98 60 -16 60 C-15.814375 61.155 -15.62875 62.31 -15.4375 63.5 C-14.8764276 67.86389648 -15.30367814 71.66733065 -16 76 C-16.99 75.67 -17.98 75.34 -19 75 C-19 76.65 -19 78.3 -19 80 C-19.33 80 -19.66 80 -20 80 C-20.06659178 77.13655366 -20.10705599 74.49513394 -19.5 71.6875 C-17.8679001 62.91496305 -18.82960609 52.08972552 -23.59375 44.44140625 C-25.23273592 41.59594459 -25.31742532 39.93563307 -25.1875 36.6875 C-25.16042969 35.80449219 -25.13335938 34.92148438 -25.10546875 34.01171875 C-25.07066406 33.34785156 -25.03585938 32.68398437 -25 32 C-24.38125 31.79375 -23.7625 31.5875 -23.125 31.375 C-20.16127909 29.45729824 -20.09772974 27.29728521 -19 24 C-16.828125 21.76171875 -16.828125 21.76171875 -14.25 19.6875 C-7.73069222 14.0995219 -3.5733375 7.74223126 0 0 Z " fill="#EAEAEA" transform="translate(31,53)"/>
<path d="M0 0 C0.99 0.33 1.98 0.66 3 1 C3.495 4.465 3.495 4.465 4 8 C1.92446352 8.5534764 0.15634036 9 -2 9 C-2.51917932 12.30976818 -3.0120561 15.45747567 -2.9375 18.8125 C-3 21 -3 21 -5 23 C-5.05233706 25.50484697 -5.05233706 25.50484697 -4.8125 28.3125 C-4.70157194 33.63704695 -4.70157194 33.63704695 -7.3125 36.8125 C-8.199375 37.534375 -9.08625 38.25625 -10 39 C-10.4125 39.99 -10.825 40.98 -11.25 42 C-13.47311615 45.81105626 -15.79207165 46.64484665 -19.64453125 48.57421875 C-23.59178224 50.96351661 -26.15685583 54.43228723 -29 58 C-29.66 58.66 -30.32 59.32 -31 60 C-31 57 -31 57 -30 54 C-30.99 54.495 -30.99 54.495 -32 55 C-34.3329866 55.04022391 -36.66706666 55.04320247 -39 55 C-38 53 -38 53 -36.07421875 52.08984375 C-33.67361098 50.82850746 -33.08880106 49.91461039 -31.8125 47.5625 C-28.47257258 41.8969176 -24.20928609 37.03284207 -20 32 C-13.22754494 23.88536748 -7.5311285 15.56571572 -3 6 C-2.01 6 -1.02 6 0 6 C0 4.02 0 2.04 0 0 Z " fill="#F3F3F3" transform="translate(216,150)"/>
<path d="M0 0 C0.12375 0.639375 0.2475 1.27875 0.375 1.9375 C0.58125 2.618125 0.7875 3.29875 1 4 C1.66 4.33 2.32 4.66 3 5 C-3.625 6.125 -3.625 6.125 -7 5 C-7.33 5.33 -7.66 5.66 -8 6 C-7.92394531 6.77730469 -7.84789062 7.55460937 -7.76953125 8.35546875 C-8 11 -8 11 -10.01171875 12.80078125 C-10.89472656 13.29964844 -11.77773437 13.79851563 -12.6875 14.3125 C-13.55761719 14.82425781 -14.42773438 15.33601563 -15.32421875 15.86328125 C-18.12899305 17.05479851 -19.98919592 17.23326951 -23 17 C-22.79375 17.61875 -22.5875 18.2375 -22.375 18.875 C-22.189375 19.926875 -22.189375 19.926875 -22 21 C-24.19708121 23.19708121 -25.51773333 23.64677679 -28.4375 24.5625 C-29.21996094 24.81128906 -30.00242187 25.06007813 -30.80859375 25.31640625 C-31.89333984 25.65478516 -31.89333984 25.65478516 -33 26 C-33.99 26.33 -34.98 26.66 -36 27 C-35.67 24.69 -35.34 22.38 -35 20 C-35.33 20.66 -35.66 21.32 -36 22 C-36.87269531 21.92007813 -37.74539062 21.84015625 -38.64453125 21.7578125 C-42.79547079 22.05741466 -44.44015388 23.32966037 -47.6875 25.875 C-48.61949219 26.59429687 -49.55148438 27.31359375 -50.51171875 28.0546875 C-51.33285156 28.69664063 -52.15398438 29.33859375 -53 30 C-53.99 30.66 -54.98 31.32 -56 32 C-54.5611898 28.612801 -52.77880501 26.6405896 -50 24.25 C-48.948125 23.32960938 -48.948125 23.32960938 -47.875 22.390625 C-46 21 -46 21 -44 21 C-44 20.34 -44 19.68 -44 19 C-34.17172176 8.32929792 -21.1844 3.15029468 -7 1 C-5.00000556 0.99528303 -2.99999155 0.99418607 -1 1 C-0.67 0.67 -0.34 0.34 0 0 Z " fill="#353535" transform="translate(88,21)"/>
<path d="M0 0 C12.35842077 -0.52300527 21.53659942 1.32296616 32 8 C32.75023437 8.40863281 33.50046875 8.81726563 34.2734375 9.23828125 C36 11 36 11 36.171875 14.13671875 C36.03265625 15.30847656 35.8934375 16.48023438 35.75 17.6875 C35.62109375 18.86699219 35.4921875 20.04648438 35.359375 21.26171875 C35.24078125 22.16535156 35.1221875 23.06898437 35 24 C31.71614911 22.60079397 29.96560551 21.02488457 27.75 18.25 C20.02344862 9.15606319 10.67669261 4.05423296 -1 2 C-0.67 1.34 -0.34 0.68 0 0 Z " fill="#D1D1D1" transform="translate(79,72)"/>
<path d="M0 0 C-0.66 0.33 -1.32 0.66 -2 1 C-2 1.66 -2 2.32 -2 3 C-4.64 3.66 -7.28 4.32 -10 5 C-10 5.66 -10 6.32 -10 7 C-14.60813849 7.04957858 -19.21612037 7.08580385 -23.82446289 7.10986328 C-25.39089667 7.11989726 -26.95731183 7.13352754 -28.52368164 7.15087891 C-30.78015753 7.17524225 -33.03638494 7.18650916 -35.29296875 7.1953125 C-35.98899704 7.20563507 -36.68502533 7.21595764 -37.40214539 7.22659302 C-41.38584491 7.22750439 -44.41290109 6.7555827 -48 5 C-44.25 3.875 -44.25 3.875 -42 5 C-39.6670134 5.04022391 -37.33293334 5.04320247 -35 5 C-34.67 4.01 -34.34 3.02 -34 2 C-33.10861328 1.96241577 -33.10861328 1.96241577 -32.19921875 1.92407227 C-29.46598993 1.80691112 -26.73300633 1.68473727 -24 1.5625 C-23.06542969 1.52318359 -22.13085938 1.48386719 -21.16796875 1.44335938 C-14.12328858 1.12314664 -7.03109898 -0.21972184 0 0 Z " fill="#A6A6A6" transform="translate(138,227)"/>
<path d="M0 0 C0 1.32 0 2.64 0 4 C-1.38782485 4.8466034 -2.78569397 5.67675339 -4.1875 6.5 C-4.96480469 6.9640625 -5.74210937 7.428125 -6.54296875 7.90625 C-9.24103386 9.10729647 -11.0806982 9.20741043 -14 9 C-13.79375 9.61875 -13.5875 10.2375 -13.375 10.875 C-13.25125 11.57625 -13.1275 12.2775 -13 13 C-15.19708121 15.19708121 -16.51773333 15.64677679 -19.4375 16.5625 C-20.21996094 16.81128906 -21.00242187 17.06007813 -21.80859375 17.31640625 C-22.89333984 17.65478516 -22.89333984 17.65478516 -24 18 C-24.99 18.33 -25.98 18.66 -27 19 C-26.9129995 17.37399059 -26.8048219 15.74910322 -26.6875 14.125 C-26.62949219 13.22007813 -26.57148437 12.31515625 -26.51171875 11.3828125 C-26 9 -26 9 -23 7 C-20.8125 7.375 -20.8125 7.375 -19 8 C-19.66 9.65 -20.32 11.3 -21 13 C-17.46413986 9.82679218 -15.41421969 7.83256305 -15 3 C-13.35 2.67 -11.7 2.34 -10 2 C-10.66 3.32 -11.32 4.64 -12 6 C-11.34 5.67 -10.68 5.34 -10 5 C-9.01 5 -8.02 5 -7 5 C-7 4.34 -7 3.68 -7 3 C-2.61538462 0 -2.61538462 0 0 0 Z " fill="#DADADA" transform="translate(79,29)"/>
<path d="M0 0 C0.99 0.33 1.98 0.66 3 1 C3.33 3.31 3.66 5.62 4 8 C1.92446352 8.5534764 0.15634036 9 -2 9 C-2.51917932 12.30976818 -3.0120561 15.45747567 -2.9375 18.8125 C-3 21 -3 21 -5 23 C-5.24287489 25.44012949 -5.24287489 25.44012949 -5.125 28.125 C-5.10695312 29.03507812 -5.08890625 29.94515625 -5.0703125 30.8828125 C-5.04710937 31.58148438 -5.02390625 32.28015625 -5 33 C-7.475 33.495 -7.475 33.495 -10 34 C-9.9690625 32.824375 -9.9690625 32.824375 -9.9375 31.625 C-9.81315937 29.01885039 -9.81315937 29.01885039 -11 27 C-11 26.01 -11 25.02 -11 24 C-11.66 24.33 -12.32 24.66 -13 25 C-11.60443486 20.94017413 -9.54269597 17.59079371 -7.2421875 14.00390625 C-5.64195351 11.42239671 -4.30235792 8.74180614 -3 6 C-2.01 6 -1.02 6 0 6 C0 4.02 0 2.04 0 0 Z " fill="#D3D3D3" transform="translate(216,150)"/>
<path d="M0 0 C3.875 0.875 3.875 0.875 5 2 C7.51137206 2.10165077 9.98874736 2.14076571 12.5 2.125 C13.58571289 2.12209961 13.58571289 2.12209961 14.69335938 2.11914062 C19.85915354 2.07751829 24.88115985 1.73126288 30 1 C23.09380333 4.6190367 16.68505129 6.66583527 8.91015625 5.2265625 C6.78076161 4.83654274 6.78076161 4.83654274 4 6 C1.33304309 6.41247427 -1.32380567 6.78690428 -4 7.125 C-4.72445312 7.22425781 -5.44890625 7.32351562 -6.1953125 7.42578125 C-9.53205477 7.85056947 -11.76758119 8.07747294 -15 7 C-14.34 5.35 -13.68 3.7 -13 2 C-9.37 2.33 -5.74 2.66 -2 3 C-1.34 2.01 -0.68 1.02 0 0 Z " fill="#818181" transform="translate(104,14)"/>
<path d="M0 0 C3.57515382 0.42350307 7.02311987 0.69048873 10.625 0.625 C10.625 1.285 10.625 1.945 10.625 2.625 C12.605 2.295 14.585 1.965 16.625 1.625 C16.955 2.615 17.285 3.605 17.625 4.625 C14.61468256 5.55923645 13.75849732 5.66949911 10.625 4.625 C9.635 5.285 8.645 5.945 7.625 6.625 C6.635 6.625 5.645 6.625 4.625 6.625 C4.955 5.305 5.285 3.985 5.625 2.625 C4.7175 2.934375 3.81 3.24375 2.875 3.5625 C0.45936662 4.3522263 -1.90280285 5.05449297 -4.375 5.625 C-4.375 4.965 -4.375 4.305 -4.375 3.625 C-6.6227975 5.67733685 -7.3772242 6.63167261 -8.375 9.625 C-9.035 8.965 -9.695 8.305 -10.375 7.625 C-8.54781804 1.1595869 -6.80572346 -0.8390618 0 0 Z " fill="#B0B0B0" transform="translate(151.375,223.375)"/>
<path d="M0 0 C1.65 0 3.3 0 5 0 C3.59291524 3.87651851 1.76062082 7.11888481 -0.5 10.5625 C-2.51924164 13.64697716 -4.4291941 16.66203747 -6 20 C-6.33 20 -6.66 20 -7 20 C-7 15.71 -7 11.42 -7 7 C-6.34 7 -5.68 7 -5 7 C-5 6.34 -5 5.68 -5 5 C-2.69 4.34 -0.38 3.68 2 3 C1.34 3 0.68 3 0 3 C0 2.01 0 1.02 0 0 Z " fill="#DCDCDC" transform="translate(35,76)"/>
<path d="M0 0 C0.33 0 0.66 0 1 0 C1.33 1.98 1.66 3.96 2 6 C2.99 5.01 3.98 4.02 5 3 C5.33 4.65 5.66 6.3 6 8 C5.06027344 8.50660156 5.06027344 8.50660156 4.1015625 9.0234375 C2.87566406 9.69246094 2.87566406 9.69246094 1.625 10.375 C0.81289062 10.81585938 0.00078125 11.25671875 -0.8359375 11.7109375 C-3.10814302 12.9443893 -3.10814302 12.9443893 -5 15 C-5.99 14.67 -6.98 14.34 -8 14 C-7.525625 13.2575 -7.05125 12.515 -6.5625 11.75 C-4.94408652 9.2183001 -4.94408652 9.2183001 -4.5625 7 C-3.74114097 4.07961234 -1.99083496 2.23968933 0 0 Z " fill="#A5A5A5" transform="translate(197,187)"/>
<path d="M0 0 C0.99 0.33 1.98 0.66 3 1 C3.33 3.31 3.66 5.62 4 8 C1.92446352 8.5534764 0.15634036 9 -2 9 C-2.63394697 13.04141194 -3.12404452 16.9065307 -3 21 C-4.32 21 -5.64 21 -7 21 C-7.92718689 17.91863039 -8.14268368 16.38328753 -7.00390625 13.32421875 C-6.52824219 12.45410156 -6.05257812 11.58398438 -5.5625 10.6875 C-5.08941406 9.80449219 -4.61632812 8.92148438 -4.12890625 8.01171875 C-3.75636719 7.34785156 -3.38382813 6.68398437 -3 6 C-2.01 6 -1.02 6 0 6 C0 4.02 0 2.04 0 0 Z " fill="#989898" transform="translate(216,150)"/>
<path d="M0 0 C0.33 0.66 0.66 1.32 1 2 C-2.05976741 9.4911547 -8.65150412 15.84392126 -15.8046875 19.390625 C-18.18432468 20.34787282 -20.55578309 21.22438211 -23 22 C-23.33 21.01 -23.66 20.02 -24 19 C-23.19175781 18.68546875 -22.38351563 18.3709375 -21.55078125 18.046875 C-20.48214844 17.61890625 -19.41351563 17.1909375 -18.3125 16.75 C-17.25675781 16.33234375 -16.20101562 15.9146875 -15.11328125 15.484375 C-9.70924346 12.90779488 -6.49948317 9.68550434 -3.1875 4.75 C-2.58292969 3.85796875 -1.97835937 2.9659375 -1.35546875 2.046875 C-0.68451172 1.03367188 -0.68451172 1.03367188 0 0 Z " fill="#BFBFBF" transform="translate(123,142)"/>
<path d="M0 0 C0.99 0.33 1.98 0.66 3 1 C5.05794248 5.47436526 5.11929469 9.03091203 4.625 13.875 C4.51414062 15.02742188 4.40328125 16.17984375 4.2890625 17.3671875 C4.19367187 18.23601562 4.09828125 19.10484375 4 20 C3.01 19.67 2.02 19.34 1 19 C1 20.65 1 22.3 1 24 C0.67 24 0.34 24 0 24 C-0.06659178 21.13655366 -0.10705599 18.49513394 0.5 15.6875 C1.47558667 10.44372163 1.46856955 5.13999341 0 0 Z " fill="#D3D3D3" transform="translate(11,109)"/>
<path d="M0 0 C4 4.75 4 4.75 4 7 C3.12730469 6.92007813 2.25460938 6.84015625 1.35546875 6.7578125 C-2.79547079 7.05741466 -4.44015388 8.32966037 -7.6875 10.875 C-8.61949219 11.59429687 -9.55148438 12.31359375 -10.51171875 13.0546875 C-11.33285156 13.69664063 -12.15398438 14.33859375 -13 15 C-13.99 15.66 -14.98 16.32 -16 17 C-14.5611898 13.612801 -12.77880501 11.6405896 -10 9.25 C-8.948125 8.32960938 -8.948125 8.32960938 -7.875 7.390625 C-6 6 -6 6 -4 6 C-4 5.34 -4 4.68 -4 4 C-2.70766393 2.62689293 -1.37562854 1.28965176 0 0 Z " fill="#E1E1E1" transform="translate(48,36)"/>
<path d="M0 0 C-6.83676724 3.58265377 -13.18307477 5.58858029 -20.8828125 4.328125 C-23.94552654 3.85346083 -26.90633057 3.93417725 -30 4 C-29 2 -29 2 -27.44140625 1.375 C-23.94084161 0.83731327 -20.46745981 0.93645437 -16.9375 1 C-11.1096994 1.10434737 -5.78231987 -0.128496 0 0 Z " fill="#B9B9B9" transform="translate(134,15)"/>
<path d="M0 0 C-0.33 0.66 -0.66 1.32 -1 2 C-2.79540009 2.48508338 -4.61339394 2.88750249 -6.4375 3.25 C-12.03525265 4.53921988 -16.20107141 6.59382652 -20.94140625 9.79296875 C-23 11 -23 11 -26 11 C-20.12627846 3.79134174 -9.09986087 -0.43332671 0 0 Z " fill="#ACACAC" transform="translate(79,72)"/>
<path d="M0 0 C1.27875 0.103125 2.5575 0.20625 3.875 0.3125 C4.95394531 0.39951172 4.95394531 0.39951172 6.0546875 0.48828125 C8 1 8 1 10 4 C-7.81493506 6.2987013 -7.81493506 6.2987013 -14 3 C-10.25 1.875 -10.25 1.875 -8 3 C-5.6670134 3.04022391 -3.33293334 3.04320247 -1 3 C-0.67 2.01 -0.34 1.02 0 0 Z " fill="#CDCDCD" transform="translate(104,229)"/>
<path d="M0 0 C0.33 0.66 0.66 1.32 1 2 C-1.48387097 8.74193548 -1.48387097 8.74193548 -4 10 C-4 9.34 -4 8.68 -4 8 C-6.475 7.01 -6.475 7.01 -9 6 C-8.67 4.35 -8.34 2.7 -8 1 C-6.865625 1.020625 -5.73125 1.04125 -4.5625 1.0625 C-1.18424326 1.41577477 -1.18424326 1.41577477 0 0 Z M-5 3 C-5 3.66 -5 4.32 -5 5 C-4.01 5 -3.02 5 -2 5 C-2 4.34 -2 3.68 -2 3 C-2.99 3 -3.98 3 -5 3 Z " fill="#DADADA" transform="translate(173,217)"/>
<path d="M0 0 C0.33 0 0.66 0 1 0 C1.75 3.25 1.75 3.25 2 7 C0.15863826 9.41281883 -1.30301826 10.65150913 -4 12 C-4 12.66 -4 13.32 -4 14 C-4.66 14 -5.32 14 -6 14 C-6 12.02 -6 10.04 -6 8 C-5.38125 7.79375 -4.7625 7.5875 -4.125 7.375 C-1.15346355 5.45224112 -0.86975341 3.33405473 0 0 Z " fill="#F0F0F0" transform="translate(12,77)"/>
<path d="M0 0 C-0.33 0.99 -0.66 1.98 -1 3 C-2.89575251 3.02721176 -4.79161979 3.04649136 -6.6875 3.0625 C-8.27111328 3.07990234 -8.27111328 3.07990234 -9.88671875 3.09765625 C-12.72410262 3.00865425 -15.2438919 2.64939838 -18 2 C-18 1.67 -18 1.34 -18 1 C-11.96445452 0.30739642 -6.07593562 -0.11251733 0 0 Z " fill="#0B0B0B" transform="translate(127,230)"/>
<path d="M0 0 C0.66 0 1.32 0 2 0 C3.03590199 5.05002222 3.10251672 9.87416389 3 15 C1.41841038 11.99112219 0.56054661 9.36327963 0 6 C-0.66 6 -1.32 6 -2 6 C-1.49396008 3.83125748 -1.00016187 2.00032373 0 0 Z " fill="#B0B0B0" transform="translate(20,153)"/>
<path d="M0 0 C0.99 0.33 1.98 0.66 3 1 C3.33 3.31 3.66 5.62 4 8 C0.25 9.125 0.25 9.125 -2 8 C-2 7.34 -2 6.68 -2 6 C-1.34 6 -0.68 6 0 6 C0 4.02 0 2.04 0 0 Z " fill="#EEEEEE" transform="translate(216,150)"/>
<path d="M0 0 C0.99 0.33 1.98 0.66 3 1 C3 4.96 3 8.92 3 13 C-0.22430866 8.16353702 -0.09242903 5.73060016 0 0 Z " fill="#323232" transform="translate(12,100)"/>
<path d="M0 0 C0.99 0.33 1.98 0.66 3 1 C2.6875 4.375 2.6875 4.375 2 8 C1.01 8.66 0.02 9.32 -1 10 C-2.1875 8.375 -2.1875 8.375 -3 6 C-1.625 2.75 -1.625 2.75 0 0 Z " fill="#D0D0D0" transform="translate(31,53)"/>
<path d="M0 0 C0.66 0 1.32 0 2 0 C2 0.66 2 1.32 2 2 C3.32 2.33 4.64 2.66 6 3 C6 3.66 6 4.32 6 5 C5.01 5 4.02 5 3 5 C3 4.34 3 3.68 3 3 C0.7522025 5.05233685 -0.0022242 6.00667261 -1 9 C-1.66 8.34 -2.32 7.68 -3 7 C-1.125 1.125 -1.125 1.125 0 0 Z " fill="#DBDBDB" transform="translate(144,224)"/>
<path d="M0 0 C0.33 0.66 0.66 1.32 1 2 C-1.2830908 7.02279976 -4.44361459 10.87562143 -9 14 C-9 11 -9 11 -6.75 8.6875 C-5.38875 7.3571875 -5.38875 7.3571875 -4 6 C-2.56119581 4.05094896 -1.28978468 2.05410153 0 0 Z " fill="#B0B0B0" transform="translate(123,142)"/>
<path d="M0 0 C0 1.32 0 2.64 0 4 C-2.3125 5.8125 -2.3125 5.8125 -5 7 C-5.99 6.67 -6.98 6.34 -8 6 C-6.72879117 2.18637351 -4.19078006 0 0 0 Z " fill="#F4F4F4" transform="translate(79,29)"/>
<path d="M0 0 C1.65 0.33 3.3 0.66 5 1 C5.33 2.32 5.66 3.64 6 5 C2.71303767 5.79953138 1.28976808 6.09658936 -2 5 C-1.34 3.35 -0.68 1.7 0 0 Z " fill="#6B6B6B" transform="translate(91,16)"/>
<path d="M0 0 C0.33 0.99 0.66 1.98 1 3 C1.66 3 2.32 3 3 3 C3 5.64 3 8.28 3 11 C2.01 10.67 1.02 10.34 0 10 C0 11.65 0 13.3 0 15 C-0.33 15 -0.66 15 -1 15 C-1.08953853 11.14984308 -0.79126089 7.75848923 0 4 C0 2.68 0 1.36 0 0 Z " fill="#F0F0F0" transform="translate(12,118)"/>
<path d="M0 0 C3.81684226 1.55500981 6.19195732 4.03595495 9 7 C6.69 6.67 4.38 6.34 2 6 C1.34 4.02 0.68 2.04 0 0 Z " fill="#B1B1B1" transform="translate(163,27)"/>
<path d="M0 0 C0.99 0 1.98 0 3 0 C3 0.66 3 1.32 3 2 C4.98 1.67 6.96 1.34 9 1 C9.33 1.99 9.66 2.98 10 4 C6.98968256 4.93423645 6.13349732 5.04449911 3 4 C2.01 4 1.02 4 0 4 C0.66 3.01 1.32 2.02 2 1 C1.34 0.67 0.68 0.34 0 0 Z " fill="#EDEDED" transform="translate(159,224)"/>
<path d="M0 0 C0.12375 0.639375 0.2475 1.27875 0.375 1.9375 C0.684375 2.9584375 0.684375 2.9584375 1 4 C1.66 4.33 2.32 4.66 3 5 C0.69 5.33 -1.62 5.66 -4 6 C-3.67 5.34 -3.34 4.68 -3 4 C-3.99 3.34 -4.98 2.68 -6 2 C-4.02 1.34 -2.04 0.68 0 0 Z " fill="#D6D6D6" transform="translate(88,21)"/>
<path d="M0 0 C0 1.65 0 3.3 0 5 C-0.99 5 -1.98 5 -3 5 C-3 6.32 -3 7.64 -3 9 C-3.99 8.67 -4.98 8.34 -6 8 C-3.18918919 0 -3.18918919 0 0 0 Z " fill="#252525" transform="translate(197,189)"/>
<path d="M0 0 C0.99 0 1.98 0 3 0 C3.33 1.98 3.66 3.96 4 6 C2.02 6.99 2.02 6.99 0 8 C0 5.33333333 0 2.66666667 0 0 Z " fill="#212121" transform="translate(206,176)"/>
<path d="M0 0 C1.4606285 2.64738916 2 3.89448334 2 7 C1.34 7 0.68 7 0 7 C-0.33 7.66 -0.66 8.32 -1 9 C-2 8 -2 8 -2.0625 5.4375 C-2.041875 4.633125 -2.02125 3.82875 -2 3 C-1.34 3 -0.68 3 0 3 C0 2.01 0 1.02 0 0 Z " fill="#969696" transform="translate(224,114)"/>
<path d="M0 0 C0.66 0 1.32 0 2 0 C2.125 3.375 2.125 3.375 2 7 C1.34 7.66 0.68 8.32 0 9 C0 7.68 0 6.36 0 5 C-0.99 4.67 -1.98 4.34 -3 4 C-2.34 4 -1.68 4 -1 4 C-0.67 2.68 -0.34 1.36 0 0 Z " fill="#BABABA" transform="translate(18,108)"/>
<path d="M0 0 C2.475 0.495 2.475 0.495 5 1 C5 2.32 5 3.64 5 5 C2 4 2 4 0 3 C0 2.01 0 1.02 0 0 Z " fill="#8F8F8F" transform="translate(146,223)"/>
<path d="M0 0 C0.99 0.33 1.98 0.66 3 1 C2.34 2.32 1.68 3.64 1 5 C-0.65 5 -2.3 5 -4 5 C-2.68 3.35 -1.36 1.7 0 0 Z " fill="#EBEBEB" transform="translate(63,39)"/>
<path d="M0 0 C0.66 0.33 1.32 0.66 2 1 C0.95125002 3.62187494 0.35068687 4.79371361 -2.125 6.25 C-2.74375 6.4975 -3.3625 6.745 -4 7 C-4.33 5.68 -4.66 4.36 -5 3 C-4.01 3 -3.02 3 -2 3 C-1.34 2.01 -0.68 1.02 0 0 Z " fill="#323232" transform="translate(12,84)"/>
<path d="M0 0 C0.99 0.33 1.98 0.66 3 1 C3 3.31 3 5.62 3 8 C2.01 7.67 1.02 7.34 0 7 C-1.17755913 4.05610218 -1.03348696 3.10046087 0 0 Z " fill="#AAAAAA" transform="translate(173,29)"/>
<path d="M0 0 C1.32 0.33 2.64 0.66 4 1 C3.67 2.65 3.34 4.3 3 6 C2.01 6 1.02 6 0 6 C0 4.02 0 2.04 0 0 Z " fill="#E0E0E0" transform="translate(23,98)"/>
<path d="M0 0 C0.66 1.32 1.32 2.64 2 4 C0.35 4.66 -1.3 5.32 -3 6 C-2.625 3.5625 -2.625 3.5625 -2 1 C-1.34 0.67 -0.68 0.34 0 0 Z " fill="#DEDEDE" transform="translate(55,42)"/>
<path d="M0 0 C-3.47325181 1.1577506 -6.36067448 1.06866652 -10 1 C-7.68309104 -3.63381792 -3.88575585 -1.46795221 0 0 Z " fill="#DFDFDF" transform="translate(114,18)"/>
</svg>
